<svg width="31" height="31" viewBox="0 0 31 31" fill="none" xmlns="http://www.w3.org/2000/svg">
<path d="M4.84375 7.75H2.90625C2.64932 7.75 2.40292 7.64793 2.22124 7.46626C2.03956 7.28458 1.9375 7.03818 1.9375 6.78125C1.9375 6.52432 2.03956 6.27792 2.22124 6.09624C2.40292 5.91456 2.64932 5.8125 2.90625 5.8125H10.6562V2.90431C10.6562 2.64738 10.7583 2.40098 10.94 2.2193C11.1217 2.03763 11.3681 1.93556 11.625 1.93556H19.375C19.6319 1.93556 19.8783 2.03763 20.06 2.2193C20.2417 2.40098 20.3438 2.64738 20.3438 2.90431V5.8125H28.0938C28.3507 5.8125 28.5971 5.91456 28.7788 6.09624C28.9604 6.27792 29.0625 6.52432 29.0625 6.78125C29.0625 7.03818 28.9604 7.28458 28.7788 7.46626C28.5971 7.64793 28.3507 7.75 28.0938 7.75H26.1562V28.0938C26.1562 28.3507 26.0542 28.5971 25.8725 28.7788C25.6908 28.9604 25.4444 29.0625 25.1875 29.0625H5.8125C5.55557 29.0625 5.30917 28.9604 5.12749 28.7788C4.94581 28.5971 4.84375 28.3507 4.84375 28.0938V7.75ZM18.4062 5.8125V3.875H12.5938V5.8125H18.4062ZM6.78125 27.125H24.2188V7.75H6.78125V27.125ZM12.5938 23.25C12.3368 23.25 12.0904 23.1479 11.9087 22.9663C11.7271 22.7846 11.625 22.5382 11.625 22.2813V12.5937C11.625 12.3368 11.7271 12.0904 11.9087 11.9087C12.0904 11.7271 12.3368 11.625 12.5938 11.625C12.8507 11.625 13.0971 11.7271 13.2788 11.9087C13.4604 12.0904 13.5625 12.3368 13.5625 12.5937V22.2813C13.5625 22.5382 13.4604 22.7846 13.2788 22.9663C13.0971 23.1479 12.8507 23.25 12.5938 23.25ZM18.4062 23.25C18.1493 23.25 17.9029 23.1479 17.7212 22.9663C17.5396 22.7846 17.4375 22.5382 17.4375 22.2813V12.5937C17.4375 12.3368 17.5396 12.0904 17.7212 11.9087C17.9029 11.7271 18.1493 11.625 18.4062 11.625C18.6632 11.625 18.9096 11.7271 19.0913 11.9087C19.2729 12.0904 19.375 12.3368 19.375 12.5937V22.2813C19.375 22.5382 19.2729 22.7846 19.0913 22.9663C18.9096 23.1479 18.6632 23.25 18.4062 23.25Z" fill="#2C2C2C"/>
</svg>
