<svg width="18" height="20" viewBox="0 0 18 20" fill="none" xmlns="http://www.w3.org/2000/svg">
<path d="M17.2938 15.5488C16.8423 14.4793 16.1871 13.5078 15.3646 12.6885C14.5446 11.8668 13.5733 11.2116 12.5042 10.7592C12.4947 10.7544 12.4851 10.7521 12.4755 10.7473C13.9667 9.67015 14.9361 7.91564 14.9361 5.93613C14.9361 2.6569 12.2792 0 9 0C5.72077 0 3.06387 2.6569 3.06387 5.93613C3.06387 7.91564 4.03328 9.67015 5.52449 10.7497C5.51492 10.7544 5.50534 10.7568 5.49577 10.7616C4.42343 11.214 3.46121 11.8627 2.63541 12.6909C1.81371 13.5108 1.15857 14.4822 0.706172 15.5512C0.261734 16.5978 0.0220377 17.7199 5.98544e-05 18.8568C-0.00057901 18.8823 0.00390188 18.9078 0.0132386 18.9315C0.0225753 18.9553 0.036579 18.977 0.0544243 18.9953C0.0722696 19.0136 0.0935956 19.0281 0.117146 19.038C0.140696 19.048 0.165993 19.0531 0.191548 19.0531H1.62771C1.73303 19.0531 1.8168 18.9693 1.8192 18.8664C1.86707 17.0185 2.60908 15.2879 3.92078 13.9762C5.27795 12.6191 7.08033 11.8723 9 11.8723C10.9197 11.8723 12.722 12.6191 14.0792 13.9762C15.3909 15.2879 16.1329 17.0185 16.1808 18.8664C16.1832 18.9717 16.267 19.0531 16.3723 19.0531H17.8085C17.834 19.0531 17.8593 19.048 17.8829 19.038C17.9064 19.0281 17.9277 19.0136 17.9456 18.9953C17.9634 18.977 17.9774 18.9553 17.9868 18.9315C17.9961 18.9078 18.0006 18.8823 17.9999 18.8568C17.976 17.7126 17.739 16.5996 17.2938 15.5488ZM9 10.0531C7.90134 10.0531 6.8673 9.62467 6.08938 8.84675C5.31146 8.06883 4.88301 7.03479 4.88301 5.93613C4.88301 4.83747 5.31146 3.80343 6.08938 3.02551C6.8673 2.24759 7.90134 1.81914 9 1.81914C10.0987 1.81914 11.1327 2.24759 11.9106 3.02551C12.6885 3.80343 13.117 4.83747 13.117 5.93613C13.117 7.03479 12.6885 8.06883 11.9106 8.84675C11.1327 9.62467 10.0987 10.0531 9 10.0531Z" fill="#908A9B"/>
</svg>
